<svg width="811" height="811" viewBox="0 0 811 811" fill="none" xmlns="http://www.w3.org/2000/svg">
<g clip-path="url(#clip0_26_9)">
<path fill-rule="evenodd" clip-rule="evenodd" d="M562.479 665.585C580.437 699.163 623.269 711.349 651.878 686.22C729.81 617.768 779 517.378 779 405.5C779 199.222 611.778 32 405.5 32C199.222 32 32 199.222 32 405.5C32 519.514 83.0858 621.596 163.616 690.105C192.596 714.759 235.197 701.937 252.65 668.129L274.714 625.391C290.71 594.404 279.01 556.935 256.605 530.213C228.314 496.473 211.28 452.976 211.28 405.5C211.28 298.235 298.235 211.28 405.5 211.28C512.765 211.28 599.72 298.235 599.72 405.5C599.72 451.856 583.48 494.418 556.379 527.809C534.439 554.84 523.346 592.41 539.764 623.111L562.479 665.585ZM408.949 778.984C408.785 778.986 408.621 778.987 408.457 778.988C406.333 779.004 404.21 779.003 402.088 778.985C403.224 778.995 404.361 779 405.5 779C406.651 779 407.801 778.995 408.949 778.984Z" fill="#2E71F3"/>
<mask id="mask0_26_9" style="mask-type:alpha" maskUnits="userSpaceOnUse" x="32" y="32" width="747" height="747">
<path fill-rule="evenodd" clip-rule="evenodd" d="M562.479 665.585C580.437 699.163 623.269 711.349 651.878 686.22C729.81 617.768 779 517.378 779 405.5C779 199.222 611.778 32 405.5 32C199.222 32 32 199.222 32 405.5C32 519.514 83.0858 621.596 163.616 690.105C192.596 714.759 235.197 701.937 252.65 668.129L274.714 625.391C290.71 594.404 279.01 556.935 256.605 530.213C228.314 496.473 211.28 452.976 211.28 405.5C211.28 298.235 298.235 211.28 405.5 211.28C512.765 211.28 599.72 298.235 599.72 405.5C599.72 451.856 583.48 494.418 556.379 527.809C534.439 554.84 523.346 592.41 539.764 623.111L562.479 665.585ZM408.949 778.984C408.785 778.986 408.621 778.987 408.457 778.988C406.333 779.004 404.21 779.003 402.088 778.985C403.224 778.995 404.361 779 405.5 779C406.651 779 407.801 778.995 408.949 778.984Z" fill="#2E71F3"/>
</mask>
<g mask="url(#mask0_26_9)">
<ellipse cx="134.063" cy="-276.549" rx="625.864" ry="870.068" transform="rotate(-11.3406 134.063 -276.549)" fill="url(#paint0_linear_26_9)"/>
</g>
</g>
<defs>
<linearGradient id="paint0_linear_26_9" x1="159.171" y1="14.7513" x2="134.063" y2="593.519" gradientUnits="userSpaceOnUse">
<stop stop-color="white" stop-opacity="0"/>
<stop offset="1" stop-color="white" stop-opacity="0.2"/>
</linearGradient>
<clipPath id="clip0_26_9">
<rect width="747" height="746.999" fill="white" transform="translate(32 32)"/>
</clipPath>
</defs>
</svg>
